<mxfile host="app.diagrams.net" modified="2023-09-03T19:28:08.811Z" agent="Mozilla/5.0 (Macintosh; Intel Mac OS X 10_15_7) AppleWebKit/537.36 (KHTML, like Gecko) Chrome/115.0.0.0 Safari/537.36" version="21.7.2" etag="Z5TNcr8B4RdT1yvHlkrY" type="github">
  <diagram name="Страница — 1" id="LagbVoApOzLmK0RkumEM">
    <mxGraphModel>
      <root>
        <mxCell id="0" />
        <mxCell id="1" parent="0" />
      </root>
    </mxGraphModel>
  </diagram>
</mxfile>
